<?xml version="1.0" encoding="UTF-8"?><svg id="Layer_1" xmlns="http://www.w3.org/2000/svg" xmlns:xlink="http://www.w3.org/1999/xlink" viewBox="0 0 512 512"><defs><style>.cls-1{fill:#fff;}.cls-2{opacity:0;}.cls-3{filter:url(#luminosity-noclip);}.cls-4{mask:url(#mask);}.cls-5{fill:url(#linear-gradient);}</style><linearGradient id="linear-gradient" x1="-34.23" y1="393.51" x2="672.08" y2="58.86" gradientUnits="userSpaceOnUse"><stop offset="0" stop-color="#227abf"/><stop offset=".12" stop-color="#3685c5"/><stop offset=".38" stop-color="#5c9ad1"/><stop offset=".63" stop-color="#77aada"/><stop offset=".84" stop-color="#88b3e0"/><stop offset="1" stop-color="#8eb7e2"/></linearGradient><filter id="luminosity-noclip" x="22.47" y="26.62" width="467.45" height="458.77" color-interpolation-filters="sRGB" filterUnits="userSpaceOnUse"><feFlood flood-color="#fff" result="bg"/><feBlend in="SourceGraphic" in2="bg"/></filter><mask id="mask" x="22.47" y="26.62" width="467.45" height="458.77" maskUnits="userSpaceOnUse"><g class="cls-3"><g id="_Flat_Front_Ring-2"><path d="m487.57,469.61l-140.18-190.69c10.67-18.32,10.58-27.83-.21-46.23L487.05,42.39c7.52-8.93-4.62-20.86-13.73-13.46l-193.17,137.71c-18.68-10.51-29.86-10.49-48.58.08L38.55,29.09c-9.11-7.38-21.24,4.53-13.73,13.48l139.81,190.23c-10.76,18.38-10.67,28.31.22,46.78L25.35,469.43c-7.53,8.95,4.6,20.86,13.71,13.48l192.81-137.46c18.66,10.46,29.83,10.36,48.59-.26l193.38,137.88c9.11,7.39,21.24-4.53,13.73-13.46Z"/></g></g></mask></defs><g id="Normal"><circle class="cls-5" cx="256" cy="256" r="256"/><g id="_Icon_Margins_"><g id="_Flat_Front_Ring"><path class="cls-1" d="m413.85,404.24l-82.16-105.13c7.27-12.71,11.41-27.43,11.41-43.11s-4.2-30.62-11.55-43.38l81.94-104.86c5.12-6.2-3.14-14.48-9.35-9.34l-104.91,81.97c-12.73-7.3-27.48-11.46-43.21-11.46s-30.55,4.19-43.31,11.52l-104.81-81.91c-6.21-5.12-14.48,3.14-9.35,9.35l81.91,104.81c-7.33,12.76-11.52,27.54-11.52,43.31s4.25,30.75,11.67,43.57l-81.69,104.55c-5.13,6.21,3.14,14.48,9.34,9.35l104.66-81.79c12.71,7.26,27.42,11.4,43.11,11.4s30.64-4.21,43.43-11.58l105.05,82.09c6.21,5.13,14.48-3.14,9.35-9.34Zm-157.83-86.82c-33.92,0-61.42-27.5-61.42-61.42s27.5-61.42,61.42-61.42,61.42,27.5,61.42,61.42-27.5,61.42-61.42,61.42Z"/><g class="cls-2"><path class="cls-1" d="m408.35,96.81c4.97,0,9.14,6.11,5.14,10.95l-81.94,104.86c7.35,12.76,11.55,27.58,11.55,43.38s-4.14,30.4-11.41,43.11l82.16,105.13c4,4.84-.16,10.95-5.14,10.95-1.4,0-2.85-.48-4.21-1.6l-105.05-82.09c-12.78,7.37-27.61,11.58-43.43,11.58s-30.39-4.14-43.11-11.4l-104.66,81.79c-1.36,1.12-2.82,1.6-4.21,1.6-4.97,0-9.14-6.11-5.13-10.95l81.69-104.55c-7.42-12.82-11.67-27.69-11.67-43.57s4.19-30.55,11.52-43.31l-81.91-104.81c-4-4.85.17-10.95,5.14-10.95,1.39,0,2.85.48,4.21,1.6l104.81,81.91c12.76-7.33,27.54-11.52,43.31-11.52s30.48,4.17,43.21,11.46l104.91-81.97c1.36-1.12,2.82-1.6,4.21-1.6m-152.33,220.61c33.92,0,61.42-27.5,61.42-61.42s-27.5-61.42-61.42-61.42-61.42,27.5-61.42,61.42,27.5,61.42,61.42,61.42m152.34-243.61s0,0,0,0c-6.67,0-13.23,2.34-18.55,6.61l-93.56,73.1c-12.75-5-26.42-7.6-40.24-7.6s-27.56,2.62-40.35,7.64l-93.46-73.04c-5.31-4.26-11.87-6.6-18.53-6.6-11.43,0-22,6.76-26.92,17.21-4.84,10.27-3.39,22.14,3.79,31.07l73.03,93.45c-5.03,12.78-7.64,26.49-7.64,40.35s2.66,27.77,7.77,40.64l-72.78,93.15c-7.18,8.92-8.64,20.79-3.8,31.06,4.93,10.46,15.5,17.22,26.93,17.22,6.66,0,13.23-2.34,18.53-6.6l93.33-72.94c12.72,4.97,26.34,7.55,40.11,7.55s27.66-2.63,40.48-7.69l93.67,73.19c5.31,4.27,11.88,6.61,18.54,6.61,11.43,0,22-6.76,26.93-17.22,4.84-10.27,3.38-22.13-3.79-31.05l-73.3-93.79c4.97-12.72,7.56-26.35,7.56-40.12s-2.63-27.62-7.67-40.43l73.05-93.49c7.18-8.92,8.64-20.78,3.8-31.06-4.93-10.46-15.5-17.22-26.92-17.22h0Zm-152.34,220.61c-21.18,0-38.42-17.24-38.42-38.42s17.24-38.42,38.42-38.42,38.42,17.24,38.42,38.42-17.23,38.42-38.42,38.42h0Z"/></g></g></g><g id="_Icon_Margins_-2"><g class="cls-4"><path id="_Shaded_Back_Ring" class="cls-1" d="m444.85,247.29l-44.02-5.45c-7.12-73.72-69.24-131.35-144.83-131.35s-137.48,57.42-144.78,130.95l-44.06,5.45c-11.26.86-11.26,17.36,0,18.22l44.06,5.45c7.3,73.53,69.33,130.95,144.78,130.95s137.27-57.22,144.75-130.56l44.1-5.46c11.26-.85,11.26-17.35,0-18.21Zm-188.85,128.21c-66,0-119.49-53.5-119.49-119.49s53.5-119.49,119.49-119.49,119.49,53.5,119.49,119.49-53.5,119.49-119.49,119.49Z"/></g></g></g></svg>